<mxfile host="Electron" modified="2023-05-26T13:48:41.863Z" agent="Mozilla/5.0 (Windows NT 10.0; Win64; x64) AppleWebKit/537.36 (KHTML, like Gecko) draw.io/21.2.8 Chrome/112.0.5615.165 Electron/24.2.0 Safari/537.36" etag="yTXUvrnN70LfoHbnc4Ou" version="21.2.8" type="device" pages="2">
  <diagram name="Page-1" id="BBiohqbQYDMryh2F5XRL">
    <mxGraphModel dx="842" dy="500" grid="0" gridSize="10" guides="1" tooltips="1" connect="1" arrows="1" fold="1" page="0" pageScale="1" pageWidth="827" pageHeight="1169" math="0" shadow="0">
      <root>
        <mxCell id="0" />
        <mxCell id="1" parent="0" />
        <mxCell id="7SdCfHOX0Z-fp3y3Kf_n-7" value="commit-1" style="swimlane;fontStyle=0;childLayout=stackLayout;horizontal=1;startSize=30;horizontalStack=0;resizeParent=1;resizeParentMax=0;resizeLast=0;collapsible=1;marginBottom=0;whiteSpace=wrap;html=1;fillColor=#f5f5f5;fontColor=#333333;strokeColor=#666666;" vertex="1" parent="1">
          <mxGeometry x="210" y="280" width="140" height="60" as="geometry" />
        </mxCell>
        <mxCell id="7SdCfHOX0Z-fp3y3Kf_n-8" value="&lt;span style=&quot;background-color: rgb(255, 204, 204);&quot;&gt;hi world&lt;/span&gt;" style="text;strokeColor=none;fillColor=none;align=left;verticalAlign=middle;spacingLeft=4;spacingRight=4;overflow=hidden;points=[[0,0.5],[1,0.5]];portConstraint=eastwest;rotatable=0;whiteSpace=wrap;html=1;" vertex="1" parent="7SdCfHOX0Z-fp3y3Kf_n-7">
          <mxGeometry y="30" width="140" height="30" as="geometry" />
        </mxCell>
        <mxCell id="7SdCfHOX0Z-fp3y3Kf_n-11" value="commit-2" style="swimlane;fontStyle=0;childLayout=stackLayout;horizontal=1;startSize=30;horizontalStack=0;resizeParent=1;resizeParentMax=0;resizeLast=0;collapsible=1;marginBottom=0;whiteSpace=wrap;html=1;fillColor=#dae8fc;strokeColor=#6c8ebf;" vertex="1" parent="1">
          <mxGeometry x="410" y="280" width="140" height="90" as="geometry" />
        </mxCell>
        <mxCell id="7SdCfHOX0Z-fp3y3Kf_n-12" value="hi world" style="text;strokeColor=none;fillColor=none;align=left;verticalAlign=middle;spacingLeft=4;spacingRight=4;overflow=hidden;points=[[0,0.5],[1,0.5]];portConstraint=eastwest;rotatable=0;whiteSpace=wrap;html=1;" vertex="1" parent="7SdCfHOX0Z-fp3y3Kf_n-11">
          <mxGeometry y="30" width="140" height="30" as="geometry" />
        </mxCell>
        <mxCell id="7SdCfHOX0Z-fp3y3Kf_n-13" value="&lt;font style=&quot;background-color: rgb(255, 204, 204);&quot;&gt;hello word&lt;/font&gt;" style="text;strokeColor=none;fillColor=none;align=left;verticalAlign=middle;spacingLeft=4;spacingRight=4;overflow=hidden;points=[[0,0.5],[1,0.5]];portConstraint=eastwest;rotatable=0;whiteSpace=wrap;html=1;" vertex="1" parent="7SdCfHOX0Z-fp3y3Kf_n-11">
          <mxGeometry y="60" width="140" height="30" as="geometry" />
        </mxCell>
        <mxCell id="7SdCfHOX0Z-fp3y3Kf_n-15" value="commit-3" style="swimlane;fontStyle=0;childLayout=stackLayout;horizontal=1;startSize=30;horizontalStack=0;resizeParent=1;resizeParentMax=0;resizeLast=0;collapsible=1;marginBottom=0;whiteSpace=wrap;html=1;fillColor=#d5e8d4;strokeColor=#82b366;" vertex="1" parent="1">
          <mxGeometry x="610" y="280" width="140" height="120" as="geometry" />
        </mxCell>
        <mxCell id="7SdCfHOX0Z-fp3y3Kf_n-16" value="hi world" style="text;strokeColor=none;fillColor=none;align=left;verticalAlign=middle;spacingLeft=4;spacingRight=4;overflow=hidden;points=[[0,0.5],[1,0.5]];portConstraint=eastwest;rotatable=0;whiteSpace=wrap;html=1;" vertex="1" parent="7SdCfHOX0Z-fp3y3Kf_n-15">
          <mxGeometry y="30" width="140" height="30" as="geometry" />
        </mxCell>
        <mxCell id="7SdCfHOX0Z-fp3y3Kf_n-17" value="hello word" style="text;strokeColor=none;fillColor=none;align=left;verticalAlign=middle;spacingLeft=4;spacingRight=4;overflow=hidden;points=[[0,0.5],[1,0.5]];portConstraint=eastwest;rotatable=0;whiteSpace=wrap;html=1;" vertex="1" parent="7SdCfHOX0Z-fp3y3Kf_n-15">
          <mxGeometry y="60" width="140" height="30" as="geometry" />
        </mxCell>
        <mxCell id="7SdCfHOX0Z-fp3y3Kf_n-18" value="&lt;span style=&quot;background-color: rgb(255, 204, 204);&quot;&gt;你好世界&lt;/span&gt;" style="text;strokeColor=none;fillColor=none;align=left;verticalAlign=middle;spacingLeft=4;spacingRight=4;overflow=hidden;points=[[0,0.5],[1,0.5]];portConstraint=eastwest;rotatable=0;whiteSpace=wrap;html=1;" vertex="1" parent="7SdCfHOX0Z-fp3y3Kf_n-15">
          <mxGeometry y="90" width="140" height="30" as="geometry" />
        </mxCell>
        <mxCell id="7SdCfHOX0Z-fp3y3Kf_n-19" style="edgeStyle=orthogonalEdgeStyle;rounded=0;orthogonalLoop=1;jettySize=auto;html=1;exitX=0;exitY=0.5;exitDx=0;exitDy=0;entryX=1;entryY=0.5;entryDx=0;entryDy=0;" edge="1" parent="1" source="7SdCfHOX0Z-fp3y3Kf_n-12" target="7SdCfHOX0Z-fp3y3Kf_n-8">
          <mxGeometry relative="1" as="geometry" />
        </mxCell>
        <mxCell id="7SdCfHOX0Z-fp3y3Kf_n-20" style="edgeStyle=orthogonalEdgeStyle;rounded=0;orthogonalLoop=1;jettySize=auto;html=1;exitX=0;exitY=0.5;exitDx=0;exitDy=0;" edge="1" parent="1" source="7SdCfHOX0Z-fp3y3Kf_n-16" target="7SdCfHOX0Z-fp3y3Kf_n-12">
          <mxGeometry relative="1" as="geometry" />
        </mxCell>
      </root>
    </mxGraphModel>
  </diagram>
  <diagram name="Page-2" id="lfMYv2SLvltcq6U413Ee">
    <mxGraphModel dx="842" dy="500" grid="0" gridSize="10" guides="1" tooltips="1" connect="1" arrows="1" fold="1" page="0" pageScale="1" pageWidth="827" pageHeight="1169" math="0" shadow="0">
      <root>
        <mxCell id="xOHXSmY_tJgAM6NMIdsm-0" />
        <mxCell id="xOHXSmY_tJgAM6NMIdsm-1" parent="xOHXSmY_tJgAM6NMIdsm-0" />
        <mxCell id="xOHXSmY_tJgAM6NMIdsm-2" value="commit-1" style="swimlane;fontStyle=0;childLayout=stackLayout;horizontal=1;startSize=30;horizontalStack=0;resizeParent=1;resizeParentMax=0;resizeLast=0;collapsible=1;marginBottom=0;whiteSpace=wrap;html=1;fillColor=#f5f5f5;fontColor=#333333;strokeColor=#666666;" vertex="1" parent="xOHXSmY_tJgAM6NMIdsm-1">
          <mxGeometry x="210" y="280" width="140" height="60" as="geometry" />
        </mxCell>
        <mxCell id="xOHXSmY_tJgAM6NMIdsm-3" value="&lt;span style=&quot;background-color: rgb(255, 204, 204);&quot;&gt;hi world&lt;/span&gt;" style="text;strokeColor=none;fillColor=none;align=left;verticalAlign=middle;spacingLeft=4;spacingRight=4;overflow=hidden;points=[[0,0.5],[1,0.5]];portConstraint=eastwest;rotatable=0;whiteSpace=wrap;html=1;" vertex="1" parent="xOHXSmY_tJgAM6NMIdsm-2">
          <mxGeometry y="30" width="140" height="30" as="geometry" />
        </mxCell>
        <mxCell id="xOHXSmY_tJgAM6NMIdsm-4" value="commit-2" style="swimlane;fontStyle=0;childLayout=stackLayout;horizontal=1;startSize=30;horizontalStack=0;resizeParent=1;resizeParentMax=0;resizeLast=0;collapsible=1;marginBottom=0;whiteSpace=wrap;html=1;fillColor=#dae8fc;strokeColor=#6c8ebf;" vertex="1" parent="xOHXSmY_tJgAM6NMIdsm-1">
          <mxGeometry x="410" y="280" width="140" height="90" as="geometry" />
        </mxCell>
        <mxCell id="xOHXSmY_tJgAM6NMIdsm-5" value="hi world" style="text;strokeColor=none;fillColor=none;align=left;verticalAlign=middle;spacingLeft=4;spacingRight=4;overflow=hidden;points=[[0,0.5],[1,0.5]];portConstraint=eastwest;rotatable=0;whiteSpace=wrap;html=1;" vertex="1" parent="xOHXSmY_tJgAM6NMIdsm-4">
          <mxGeometry y="30" width="140" height="30" as="geometry" />
        </mxCell>
        <mxCell id="xOHXSmY_tJgAM6NMIdsm-6" value="&lt;font style=&quot;background-color: rgb(255, 204, 204);&quot;&gt;hello word&lt;/font&gt;" style="text;strokeColor=none;fillColor=none;align=left;verticalAlign=middle;spacingLeft=4;spacingRight=4;overflow=hidden;points=[[0,0.5],[1,0.5]];portConstraint=eastwest;rotatable=0;whiteSpace=wrap;html=1;" vertex="1" parent="xOHXSmY_tJgAM6NMIdsm-4">
          <mxGeometry y="60" width="140" height="30" as="geometry" />
        </mxCell>
        <mxCell id="xOHXSmY_tJgAM6NMIdsm-7" value="commit-3" style="swimlane;fontStyle=0;childLayout=stackLayout;horizontal=1;startSize=30;horizontalStack=0;resizeParent=1;resizeParentMax=0;resizeLast=0;collapsible=1;marginBottom=0;whiteSpace=wrap;html=1;fillColor=#d5e8d4;strokeColor=#82b366;" vertex="1" parent="xOHXSmY_tJgAM6NMIdsm-1">
          <mxGeometry x="610" y="280" width="140" height="120" as="geometry" />
        </mxCell>
        <mxCell id="xOHXSmY_tJgAM6NMIdsm-8" value="hi world" style="text;strokeColor=none;fillColor=none;align=left;verticalAlign=middle;spacingLeft=4;spacingRight=4;overflow=hidden;points=[[0,0.5],[1,0.5]];portConstraint=eastwest;rotatable=0;whiteSpace=wrap;html=1;" vertex="1" parent="xOHXSmY_tJgAM6NMIdsm-7">
          <mxGeometry y="30" width="140" height="30" as="geometry" />
        </mxCell>
        <mxCell id="xOHXSmY_tJgAM6NMIdsm-9" value="hello word" style="text;strokeColor=none;fillColor=none;align=left;verticalAlign=middle;spacingLeft=4;spacingRight=4;overflow=hidden;points=[[0,0.5],[1,0.5]];portConstraint=eastwest;rotatable=0;whiteSpace=wrap;html=1;" vertex="1" parent="xOHXSmY_tJgAM6NMIdsm-7">
          <mxGeometry y="60" width="140" height="30" as="geometry" />
        </mxCell>
        <mxCell id="xOHXSmY_tJgAM6NMIdsm-10" value="&lt;span style=&quot;background-color: rgb(255, 204, 204);&quot;&gt;你好世界&lt;/span&gt;" style="text;strokeColor=none;fillColor=none;align=left;verticalAlign=middle;spacingLeft=4;spacingRight=4;overflow=hidden;points=[[0,0.5],[1,0.5]];portConstraint=eastwest;rotatable=0;whiteSpace=wrap;html=1;" vertex="1" parent="xOHXSmY_tJgAM6NMIdsm-7">
          <mxGeometry y="90" width="140" height="30" as="geometry" />
        </mxCell>
        <mxCell id="xOHXSmY_tJgAM6NMIdsm-11" style="edgeStyle=orthogonalEdgeStyle;rounded=0;orthogonalLoop=1;jettySize=auto;html=1;exitX=0;exitY=0.5;exitDx=0;exitDy=0;entryX=1;entryY=0.5;entryDx=0;entryDy=0;" edge="1" parent="xOHXSmY_tJgAM6NMIdsm-1" source="xOHXSmY_tJgAM6NMIdsm-5" target="xOHXSmY_tJgAM6NMIdsm-3">
          <mxGeometry relative="1" as="geometry" />
        </mxCell>
        <mxCell id="xOHXSmY_tJgAM6NMIdsm-12" style="edgeStyle=orthogonalEdgeStyle;rounded=0;orthogonalLoop=1;jettySize=auto;html=1;exitX=0;exitY=0.5;exitDx=0;exitDy=0;" edge="1" parent="xOHXSmY_tJgAM6NMIdsm-1" source="xOHXSmY_tJgAM6NMIdsm-8" target="xOHXSmY_tJgAM6NMIdsm-5">
          <mxGeometry relative="1" as="geometry" />
        </mxCell>
        <mxCell id="2A1l1_p0xBXC1_nc1CH9-4" value="commit-4" style="swimlane;fontStyle=0;childLayout=stackLayout;horizontal=1;startSize=30;horizontalStack=0;resizeParent=1;resizeParentMax=0;resizeLast=0;collapsible=1;marginBottom=0;whiteSpace=wrap;html=1;fillColor=#ffe6cc;strokeColor=#d79b00;" vertex="1" parent="xOHXSmY_tJgAM6NMIdsm-1">
          <mxGeometry x="820" y="280" width="140" height="120" as="geometry" />
        </mxCell>
        <mxCell id="2A1l1_p0xBXC1_nc1CH9-5" value="hi world" style="text;strokeColor=none;fillColor=none;align=left;verticalAlign=middle;spacingLeft=4;spacingRight=4;overflow=hidden;points=[[0,0.5],[1,0.5]];portConstraint=eastwest;rotatable=0;whiteSpace=wrap;html=1;" vertex="1" parent="2A1l1_p0xBXC1_nc1CH9-4">
          <mxGeometry y="30" width="140" height="30" as="geometry" />
        </mxCell>
        <mxCell id="2A1l1_p0xBXC1_nc1CH9-7" value="&lt;span style=&quot;background-color: rgb(255, 204, 204);&quot;&gt;hello world&lt;/span&gt;" style="text;strokeColor=none;fillColor=none;align=left;verticalAlign=middle;spacingLeft=4;spacingRight=4;overflow=hidden;points=[[0,0.5],[1,0.5]];portConstraint=eastwest;rotatable=0;whiteSpace=wrap;html=1;" vertex="1" parent="2A1l1_p0xBXC1_nc1CH9-4">
          <mxGeometry y="60" width="140" height="30" as="geometry" />
        </mxCell>
        <mxCell id="2A1l1_p0xBXC1_nc1CH9-9" value="你好世界" style="text;strokeColor=none;fillColor=none;align=left;verticalAlign=middle;spacingLeft=4;spacingRight=4;overflow=hidden;points=[[0,0.5],[1,0.5]];portConstraint=eastwest;rotatable=0;whiteSpace=wrap;html=1;" vertex="1" parent="2A1l1_p0xBXC1_nc1CH9-4">
          <mxGeometry y="90" width="140" height="30" as="geometry" />
        </mxCell>
        <mxCell id="2A1l1_p0xBXC1_nc1CH9-8" style="edgeStyle=orthogonalEdgeStyle;rounded=0;orthogonalLoop=1;jettySize=auto;html=1;exitX=0;exitY=0.5;exitDx=0;exitDy=0;entryX=1;entryY=0.5;entryDx=0;entryDy=0;" edge="1" parent="xOHXSmY_tJgAM6NMIdsm-1" source="2A1l1_p0xBXC1_nc1CH9-5" target="xOHXSmY_tJgAM6NMIdsm-8">
          <mxGeometry relative="1" as="geometry" />
        </mxCell>
      </root>
    </mxGraphModel>
  </diagram>
</mxfile>
